<svg id="flat" height="512" viewBox="0 0 512 512" width="512" xmlns="http://www.w3.org/2000/svg"><path d="m432 192v186.75a32.06422 32.06422 0 0 1 -9.37 22.62l-77.26 77.26a32.06422 32.06422 0 0 1 -22.62 9.37h-211.04a31.59575 31.59575 0 0 1 -31.71-32.09009v-263.90991z" fill="#548aff"/><path d="m429.12 392a31.825 31.825 0 0 1 -6.49 9.37l-77.26 77.26a31.825 31.825 0 0 1 -9.37 6.49v-61.12a32.004 32.004 0 0 1 32-32z" fill="#7dafff"/><path d="m120 128h16v64h-16z" fill="#ffc431"/><path d="m160 88h32v56h-32z" fill="#f78e00"/><path d="m256 192v-56h-32v56" fill="#f78e00"/><g fill="#ffc431"><path d="m120 16h16v96h-16z"/><path d="m88 160h16v32h-16z"/><path d="m88 16h16v32h-16z"/><path d="m88 64h16v80h-16z"/><path d="m408 160h16v32h-16z"/><path d="m408 16h16v32h-16z"/><path d="m408 64h16v80h-16z"/><path d="m152 16h16v48h-16z"/><path d="m184 16h16v16h-16z"/><path d="m184 48h16v16h-16z"/><path d="m216 72h16v40h-16z"/><path d="m248 16h16v56h-16z"/><path d="m248 88h16v24h-16z"/><path d="m216 16h16v40h-16z"/><path d="m152 168h16v24h-16z"/><path d="m184 168h16v24h-16z"/></g><path d="m288 56h32v56h-32z" fill="#f78e00"/><path d="m352 160h32v32h-32z" fill="#f78e00"/><path d="m280 16h16v16h-16z" fill="#ffc431"/><path d="m312 16h16v16h-16z" fill="#ffc431"/><path d="m344 64h16v72h-16z" fill="#ffc431"/><path d="m376 16h16v80h-16z" fill="#ffc431"/><path d="m376 112h16v24h-16z" fill="#ffc431"/><path d="m344 16h16v32h-16z" fill="#ffc431"/><path d="m280 136h16v56h-16z" fill="#ffc431"/><path d="m312 136h16v56h-16z" fill="#ffc431"/><path d="m168 240h24v16h-24z" fill="#486be0"/><path d="m208 240h112v16h-112z" fill="#486be0"/><path d="m336 240h48v16h-48z" fill="#486be0"/><path d="m128 288h48v16h-48z" fill="#486be0"/><path d="m192 288h128v16h-128z" fill="#486be0"/><path d="m128 384h88v16h-88z" fill="#486be0"/><path d="m232 384h80v16h-80z" fill="#486be0"/><path d="m128 432h24v16h-24z" fill="#486be0"/><path d="m280 432h32v16h-32z" fill="#486be0"/><path d="m168 432h96v16h-96z" fill="#486be0"/><path d="m336 288h48v16h-48z" fill="#486be0"/><path d="m128 336h16v16h-16z" fill="#486be0"/><path d="m160 336h112v16h-112z" fill="#486be0"/><path d="m288 336h96v16h-96z" fill="#486be0"/></svg>