<svg height="512" viewBox="0 0 48 58" width="512" xmlns="http://www.w3.org/2000/svg"><g id="Page-1" fill="none" fill-rule="evenodd"><g id="028---Leaflet" fill-rule="nonzero"><path id="Shape" d="m40 19 7.416-17.612c.1300047-.30881457.0967087-.66221579-.0886869-.94131458-.1853956-.2790988-.4982494-.44679956-.8333131-.44668542h-37.83c-.40248981-.00013709-.76583397.24104147-.922.612l-7.742 18.388 8 20-6.5 17.654c-.1128915.3061144-.06934984.6480536.11665477.9161073.18600461.2680538.49108058.4285122.81734523.4298927h37.866c.4187597-.0000982.7931091-.2611052.938-.654l6.762-18.346z" fill="#f3d55b"/><path id="Shape" d="m48 39h-40l-8-20h40z" fill="#f0c419"/><path id="Shape" d="m35 25h-26c-.55228475 0-1-.4477153-1-1s.44771525-1 1-1h26c.5522847 0 1 .4477153 1 1s-.4477153 1-1 1z" fill="#3d324c"/><path id="Shape" d="m17 30h-6c-.5522847 0-1-.4477153-1-1s.4477153-1 1-1h6c.5522847 0 1 .4477153 1 1s-.4477153 1-1 1z" fill="#3d324c"/><path id="Shape" d="m37 30h-16c-.5522847 0-1-.4477153-1-1s.4477153-1 1-1h16c.5522847 0 1 .4477153 1 1s-.4477153 1-1 1z" fill="#3d324c"/><path id="Shape" d="m39 35h-25c-.5522847 0-1-.4477153-1-1s.4477153-1 1-1h25c.5522847 0 1 .4477153 1 1s-.4477153 1-1 1z" fill="#3d324c"/><path id="Shape" d="m18.65 54h-10.936c-.1631569.000049-.31607552-.0795107-.40967995-.2131459-.09360444-.1336353-.11611972-.3045356-.06032005-.4578541l3.636-10c.0719083-.1975795.2597419-.3290631.47-.329h10.936c.1631569-.000049.3160755.0795107.40968.2131459.0936044.1336353.1161197.3045356.06032.4578541l-3.636 10c-.0719083.1975795-.2597419.3290631-.47.329z" fill="#67b9cc"/><path id="Shape" d="m36.678 15h-10.9c-.1701714.0002933-.328809-.0859834-.4210452-.22899-.0922361-.1430065-.1054061-.3231068-.0349548-.47801l4.546-10c.0809864-.17806916.2583799-.29255436.454-.293h10.9c.1701714-.00029334.328809.08598342.4210452.22898997.0922361.14300655.1054061.32310683.0349548.47801003l-4.546 10c-.0809864.1780692-.2583799.2925544-.454.293z" fill="#67b9cc"/><g fill="#3d324c"><path id="Shape" d="m41 46h-13c-.5522847 0-1-.4477153-1-1s.4477153-1 1-1h13c.5522847 0 1 .4477153 1 1s-.4477153 1-1 1z"/><path id="Shape" d="m39 50h-4c-.5522847 0-1-.4477153-1-1s.4477153-1 1-1h4c.5522847 0 1 .4477153 1 1s-.4477153 1-1 1z"/><path id="Shape" d="m31 50h-5c-.5522847 0-1-.4477153-1-1s.4477153-1 1-1h5c.5522847 0 1 .4477153 1 1s-.4477153 1-1 1z"/><path id="Shape" d="m37 54h-13c-.5522847 0-1-.4477153-1-1s.4477153-1 1-1h13c.5522847 0 1 .4477153 1 1s-.4477153 1-1 1z"/><path id="Shape" d="m20 14h-13c-.55228475 0-1-.4477153-1-1s.44771525-1 1-1h13c.5522847 0 1 .4477153 1 1s-.4477153 1-1 1z"/><path id="Shape" d="m13 10h-4c-.55228475 0-1-.44771525-1-1s.44771525-1 1-1h4c.5522847 0 1 .44771525 1 1s-.4477153 1-1 1z"/><path id="Shape" d="m22 10h-5c-.5522847 0-1-.44771525-1-1s.4477153-1 1-1h5c.5522847 0 1 .44771525 1 1s-.4477153 1-1 1z"/><path id="Shape" d="m24 6h-13c-.5522847 0-1-.44771525-1-1s.4477153-1 1-1h13c.5522847 0 1 .44771525 1 1s-.4477153 1-1 1z"/></g></g></g></svg>