<svg id="Capa_1" enable-background="new 0 0 512 512" height="512" viewBox="0 0 512 512" width="512" xmlns="http://www.w3.org/2000/svg" xmlns:xlink="http://www.w3.org/1999/xlink"><linearGradient id="SVGID_1_" gradientUnits="userSpaceOnUse" x1="74.981" x2="437.02" y1="437.019" y2="74.98"><stop offset=".1" stop-color="#ff195e"/><stop offset="1" stop-color="#ffc5a3"/></linearGradient><radialGradient id="SVGID_2_" cx="256.001" cy="256" gradientUnits="userSpaceOnUse" r="256"><stop offset="0" stop-color="#ff195e"/><stop offset=".093" stop-color="#ff2466" stop-opacity=".907"/><stop offset=".2545" stop-color="#ff417a" stop-opacity=".746"/><stop offset=".4652" stop-color="#ff6f9a" stop-opacity=".535"/><stop offset=".717" stop-color="#ffafc7" stop-opacity=".283"/><stop offset="1" stop-color="#fff" stop-opacity="0"/></radialGradient><linearGradient id="SVGID_3_" gradientUnits="userSpaceOnUse" x1="43.273" x2="502.081" y1="468.727" y2="9.919"><stop offset="0" stop-color="#ffb5d3"/><stop offset=".4183" stop-color="#ffdbea"/><stop offset=".7836" stop-color="#fff5f9"/><stop offset="1" stop-color="#fff"/></linearGradient><linearGradient id="SVGID_4_" gradientUnits="userSpaceOnUse" x1="308.453" x2="432.8" y1="234.079" y2="109.732"><stop offset="0" stop-color="#ff195e"/><stop offset="1" stop-color="#ffc5a3"/></linearGradient><linearGradient id="SVGID_5_" gradientUnits="userSpaceOnUse" x1="95.809" x2="454.507" y1="303.044" y2="-55.655"><stop offset="0" stop-color="#ffa9d4"/><stop offset=".3635" stop-color="#ffc6d5"/><stop offset=".7626" stop-color="#ffe1d6"/><stop offset="1" stop-color="#ffead6"/></linearGradient><linearGradient id="SVGID_6_" gradientUnits="userSpaceOnUse" x1="-25.65" x2="390.435" y1="566.612" y2="150.527"><stop offset="0" stop-color="#ffe3f1"/><stop offset=".5489" stop-color="#fff5fa"/><stop offset="1" stop-color="#fff"/></linearGradient><linearGradient id="lg1"><stop offset="0" stop-color="#ff91bb"/><stop offset=".2229" stop-color="#ffb0ce"/><stop offset=".5688" stop-color="#ffdbe9"/><stop offset=".8396" stop-color="#fff5f9"/><stop offset="1" stop-color="#fff"/></linearGradient><linearGradient id="SVGID_7_" gradientUnits="userSpaceOnUse" x1="176.959" x2="431.177" xlink:href="#lg1" y1="364.687" y2="110.47"/><linearGradient id="SVGID_8_" gradientUnits="userSpaceOnUse" x1="137.445" x2="439.053" xlink:href="#lg1" y1="404.202" y2="102.594"/><g><circle cx="256" cy="256" fill="url(#SVGID_1_)" r="256"/><circle cx="256" cy="256" fill="url(#SVGID_2_)" r="256"/><path d="m422 407.6c-110.667 4.234-221.333 4.234-332 0-8.276-.322-15.399-7.323-15.854-15.6-4.894-90.667-4.894-181.333 0-272 .454-8.277 7.578-15.277 15.854-15.6 110.667-4.234 221.333-4.234 332 0 8.276.323 15.4 7.323 15.854 15.6 4.894 90.667 4.894 181.333 0 272-.454 8.277-7.578 15.277-15.854 15.6z" fill="url(#SVGID_3_)"/><path d="m422.784 119.46c.99 20.079 1.762 40.159 2.315 60.238-30.283 9.462-60.771 19.309-91.375 29.355 9.997-30.565 19.678-61.014 28.777-91.287 20.094.44 40.188 1.005 60.283 1.694z" fill="url(#SVGID_4_)"/><path d="m362.5 117.766c1.106 35.575 1.786 71.15 2.038 106.725-92.946-15.701-185.693-31.479-277.637-44.793.553-20.079 1.325-40.159 2.315-60.238 91.095-3.124 182.19-3.689 273.284-1.694z" fill="url(#SVGID_5_)"/><path d="m86.901 179.698c-1.955 70.947-1.183 141.895 2.315 212.842 111.189 3.813 222.378 3.813 333.567 0 3.499-70.947 4.27-141.895 2.315-212.842-112.732-2.131-225.464-2.131-338.197 0z" fill="url(#SVGID_6_)"/><path d="m393.725 363.154c-91.816 1.995-183.633 1.995-275.449 0-1.601-51.218-2.055-102.436-1.36-153.655 79.084 69.533 176.762 126.06 276.809 153.655z" fill="url(#SVGID_7_)"/><path d="m395.084 209.499c.695 51.218.242 102.436-1.36 153.655-100.046-27.596-197.724-84.121-276.809-153.655 92.724-.865 185.446-.865 278.169 0z" fill="url(#SVGID_8_)"/></g></svg>