<?xml version="1.0" encoding="iso-8859-1"?>
<!-- Generator: Adobe Illustrator 19.0.0, SVG Export Plug-In . SVG Version: 6.00 Build 0)  -->
<svg version="1.1" id="Capa_1" xmlns="http://www.w3.org/2000/svg" xmlns:xlink="http://www.w3.org/1999/xlink" x="0px" y="0px"
	 viewBox="0 0 496 496" style="enable-background:new 0 0 496 496;" xml:space="preserve">
<rect x="280" y="200" style="fill:#AFB8C9;" width="32" height="80"/>
<rect x="280" y="248" style="fill:#8C95A4;" width="32" height="32"/>
<rect x="128" y="56" style="fill:#AFB8C9;" width="144" height="32"/>
<circle style="fill:#B6C1CE;" cx="384" cy="168" r="24"/>
<rect x="88" y="200" style="fill:#AFB8C9;" width="32" height="80"/>
<rect x="88" y="248" style="fill:#8C95A4;" width="32" height="32"/>
<path style="fill:#AFB8C9;" d="M328,56h-24v32h24c8.84,0,16-7.16,16-16S336.84,56,328,56z"/>
<path style="fill:#FEA82F;" d="M424,264H72c-35.344,0-64,28.656-64,64v32c0,35.344,28.656,64,64,64h24h96h232
	c35.344,0,64-28.656,64-64v-32C488,292.656,459.344,264,424,264z"/>
<path style="fill:#B6C1CE;" d="M448,72L448,72c-8.84,0-16-7.16-16-16V24c0-8.84,7.16-16,16-16l0,0c8.84,0,16,7.16,16,16v32
	C464,64.84,456.84,72,448,72z"/>
<circle style="fill:#8C95A4;" cx="144" cy="440" r="48"/>
<circle style="fill:#ECECEC;" cx="144" cy="440" r="24"/>
<polygon style="fill:#AFB8C9;" points="344,424 376,488 408,488 408,424 "/>
<g>
	<path style="fill:#FCD770;" d="M120,40h-16c-8.84,0-16,7.16-16,16v72h48V56C136,47.16,128.84,40,120,40z"/>
	<path style="fill:#FCD770;" d="M296,40h-16c-8.84,0-16,7.16-16,16v72h48V56C312,47.16,304.84,40,296,40z"/>
</g>
<rect x="144" y="136" style="fill:#AFB8C9;" width="112" height="64"/>
<g>
	<rect x="72" y="120" style="fill:#FEA82F;" width="80" height="96"/>
	<rect x="248" y="120" style="fill:#FEA82F;" width="80" height="96"/>
</g>
<rect x="296" y="328" style="fill:#FCD770;" width="96" height="64"/>
<path d="M424,256h-32v-24h40c13.232,0,24-10.768,24-24V78.528c9.288-3.312,16-12.112,16-22.528V24c0-13.232-10.768-24-24-24
	s-24,10.768-24,24v32c0,10.416,6.712,19.216,16,22.528V208c0,4.408-3.592,8-8,8h-40v-17.136c13.76-3.576,24-16,24-30.864
	c0-17.648-14.352-32-32-32s-32,14.352-32,32c0,14.864,10.24,27.288,24,30.864V256h-56v-32h16V112h-16V96h8c13.232,0,24-10.768,24-24
	s-10.768-24-24-24h-9.472c-3.312-9.288-12.112-16-22.528-16h-16c-10.416,0-19.216,6.712-22.528,16H142.528
	c-3.312-9.288-12.112-16-22.528-16h-16c-13.232,0-24,10.768-24,24v56H64v112h16v32h-8c-39.696,0-72,32.304-72,72v32
	c0,39.696,32.304,72,72,72h16.64c-0.376,2.624-0.64,5.28-0.64,8c0,30.88,25.12,56,56,56s56-25.12,56-56c0-2.72-0.264-5.376-0.64-8
	h139.696l32,64H416v-64h8c39.696,0,72-32.304,72-72v-32C496,288.304,463.696,256,424,256z M440,24c0-4.408,3.592-8,8-8s8,3.592,8,8
	v32c0,4.408-3.592,8-8,8s-8-3.592-8-8V24z M368,168c0-8.824,7.176-16,16-16s16,7.176,16,16s-7.176,16-16,16S368,176.824,368,168z
	 M304,256h-16v-32h16V256z M80,208v-16h64v16H80z M320,128v16h-64v-16H320z M240,192h-80v-48h80V192z M256,80H144V64h112V80z
	 M144,96h112v16h-16v16h-80v-16h-16V96z M160,224v-16h80v16h32v32H128v-32H160z M256,208v-16h32v-16h-32v-16h64v16h-16v16h16v16H256
	z M272,112V80h32v32H272z M336,72c0,4.408-3.592,8-8,8h-8V64h8C332.408,64,336,67.592,336,72z M280,48h16c4.408,0,8,3.592,8,8v8h-32
	v-8C272,51.592,275.592,48,280,48z M104,48h16c4.408,0,8,3.592,8,8v8H96v-8C96,51.592,99.592,48,104,48z M96,80h32v32H96V80z
	 M144,128v16h-32v16h32v16H80v-16h16v-16H80v-16H144z M96,224h16v32H96V224z M16,360v-32c0-28.152,20.904-51.456,48-55.36v142.72
	C36.904,411.456,16,388.152,16,360z M144,480c-22.056,0-40-17.944-40-40s17.944-40,40-40s40,17.944,40,40S166.056,480,144,480z
	 M400,480h-19.056l-24-48H400V480z M480,360c0,28.152-20.904,51.456-48,55.36V384h-16v32H194.52c-9.008-18.888-28.24-32-50.52-32
	s-41.512,13.112-50.52,32H80V272h336v96h16v-95.36c27.096,3.904,48,27.208,48,55.36V360z"/>
<path d="M288,400h112v-80H288V400z M304,336h80v48h-80V336z"/>
<rect x="104" y="288" width="288" height="16"/>
<rect x="104" y="320" width="160" height="16"/>
<rect x="104" y="352" width="160" height="16"/>
<g>
</g>
<g>
</g>
<g>
</g>
<g>
</g>
<g>
</g>
<g>
</g>
<g>
</g>
<g>
</g>
<g>
</g>
<g>
</g>
<g>
</g>
<g>
</g>
<g>
</g>
<g>
</g>
<g>
</g>
</svg>
