<svg id="Capa_1" enable-background="new 0 0 511.889 511.889" height="512" viewBox="0 0 511.889 511.889" width="512" xmlns="http://www.w3.org/2000/svg"><g><g><g><path d="m241.071 279.191-225.692 98.618c-10.505 4.59-10.505 21.955 0 26.546l225.692 98.618c9.591 4.191 20.156 4.191 29.747 0l225.692-98.618c10.505-4.59 10.505-21.955 0-26.546l-225.692-98.618c-9.592-4.191-20.156-4.191-29.747 0z" fill="#03bed7"/></g></g><g><g><path d="m496.506 404.351-225.69 98.624c-9.587 4.183-20.155 4.183-29.742 0l-8.546-3.733 217.144-94.892c10.508-4.583 10.508-21.957 0-26.54l-99.045-43.283-23.408-10.228 23.408-10.238 23.418 10.238h.01l122.452 53.51c10.507 4.586 10.507 21.959-.001 26.542z" fill="#07b2cd"/></g></g><g><g><path d="m241.071 145.62-225.692 98.618c-10.505 4.59-10.505 21.955 0 26.545l225.692 98.618c9.591 4.191 20.156 4.191 29.747 0l225.692-98.618c10.505-4.59 10.505-21.955 0-26.545l-225.692-98.618c-9.592-4.191-20.156-4.191-29.747 0z" fill="#fea613"/></g></g><g><g><path d="m496.506 270.781-122.452 53.52h-.01l-23.418 10.228-79.81 34.876c-9.587 4.183-20.155 4.183-29.742 0l-8.546-3.733 94.681-41.371h.01l23.408-10.238 99.045-43.283c10.508-4.584 10.508-21.956 0-26.54l-99.045-43.283-23.418-10.228 23.418-10.238 23.418 10.238 122.462 53.51c10.507 4.585 10.507 21.958-.001 26.542z" fill="#fb8801"/></g></g><g><g><path d="m241.071 12.05-225.692 98.617c-10.505 4.59-10.505 21.955 0 26.546l225.692 98.618c9.591 4.191 20.156 4.191 29.747 0l225.692-98.618c10.505-4.59 10.505-21.955 0-26.546l-225.692-98.617c-9.592-4.191-20.156-4.191-29.747 0z" fill="#8379c1"/></g></g><g><g><path d="m496.506 137.21-122.462 53.52-23.418 10.228-79.81 34.876c-9.587 4.183-20.155 4.183-29.742 0l-8.546-3.733 94.681-41.371 23.418-10.238 99.045-43.283c10.508-4.584 10.508-21.957 0-26.54l-217.145-94.891 8.546-3.733c9.587-4.183 20.155-4.183 29.742 0l225.69 98.624c10.509 4.584 10.509 21.958.001 26.541z" fill="#6e61b6"/></g></g><g><path d="m121.792 442.667-19.483-8.514c-3.795-1.66-8.217.073-9.875 3.87-1.659 3.795.074 8.217 3.87 9.875l19.483 8.514c.978.427 1.996.629 2.999.629 2.891 0 5.645-1.681 6.876-4.499 1.658-3.794-.074-8.216-3.87-9.875z"/><path d="m178.387 467.397-19.483-8.514c-3.795-1.659-8.216.073-9.875 3.87-1.659 3.795.074 8.217 3.87 9.875l19.483 8.514c.978.427 1.996.629 2.999.629 2.891 0 5.645-1.681 6.876-4.499 1.659-3.795-.074-8.216-3.87-9.875z"/><path d="m11.283 371.454c-6.96 3.562-11.283 11.083-11.283 19.628 0 2.792.463 5.509 1.376 8.077 1.093 3.072 3.982 4.988 7.066 4.988.834 0 1.683-.14 2.514-.436 3.902-1.388 5.941-5.677 4.553-9.58-.333-.936-.509-1.991-.509-3.05 0-2.159.816-5.098 3.117-6.276 3.688-1.887 5.146-6.406 3.259-10.094-1.887-3.687-6.408-5.144-10.093-3.257z"/><path d="m234.982 492.126-19.483-8.513c-3.796-1.659-8.217.074-9.875 3.87-1.659 3.795.074 8.217 3.87 9.875l19.483 8.513c.978.427 1.996.629 2.999.629 2.891 0 5.645-1.681 6.876-4.499 1.659-3.794-.074-8.216-3.87-9.875z"/><path d="m68.282 346.507-19.483 8.514c-3.796 1.659-5.528 6.08-3.87 9.875 1.231 2.818 3.986 4.499 6.876 4.499 1.002 0 2.022-.202 2.999-.629l19.483-8.514c3.796-1.659 5.528-6.08 3.87-9.875-1.658-3.796-6.081-5.529-9.875-3.87z"/><path d="m65.197 417.938-19.484-8.513c-3.795-1.658-8.217.074-9.875 3.87-1.659 3.796.074 8.217 3.87 9.875l19.484 8.513c.978.427 1.996.629 2.999.629 2.891 0 5.645-1.681 6.876-4.499 1.659-3.795-.074-8.217-3.87-9.875z"/><path d="m472.22 359.01-19.483-8.513c-3.796-1.659-8.217.074-9.875 3.87-1.659 3.795.074 8.217 3.87 9.875l19.483 8.513c.978.427 1.996.629 2.999.629 2.891 0 5.645-1.681 6.876-4.499 1.659-3.795-.074-8.217-3.87-9.875z"/><path d="m457.044 413.414-19.484 8.514c-3.796 1.659-5.528 6.08-3.87 9.875 1.231 2.818 3.986 4.499 6.876 4.499 1.002 0 2.021-.202 2.999-.629l19.484-8.514c3.796-1.659 5.528-6.08 3.87-9.875-1.658-3.797-6.081-5.529-9.875-3.87z"/><path d="m500.965 378.485c-3.906 1.378-5.956 5.662-4.578 9.568.328.93.501 1.977.501 3.028 0 2.165-.82 5.109-3.132 6.282-3.694 1.875-5.169 6.388-3.295 10.082 1.323 2.606 3.959 4.108 6.694 4.108 1.141 0 2.3-.261 3.388-.813 6.998-3.551 11.345-11.084 11.345-19.659 0-2.771-.456-5.468-1.356-8.019-1.377-3.906-5.664-5.954-9.567-4.577z"/><path d="m343.854 462.874-19.483 8.513c-3.795 1.659-5.528 6.08-3.87 9.875 1.231 2.818 3.986 4.499 6.876 4.499 1.002 0 2.021-.202 2.999-.629l19.483-8.513c3.795-1.659 5.528-6.08 3.87-9.875-1.658-3.797-6.08-5.531-9.875-3.87z"/><path d="m400.449 438.144-19.484 8.514c-3.796 1.659-5.528 6.08-3.87 9.875 1.231 2.818 3.986 4.499 6.876 4.499 1.002 0 2.021-.202 2.999-.629l19.484-8.514c3.796-1.659 5.528-6.08 3.87-9.875-1.658-3.797-6.082-5.53-9.875-3.87z"/><path d="m287.259 487.603-19.429 8.489c-.036.016-.07.03-.098.043-3.785 1.682-5.488 6.113-3.806 9.898 1.242 2.795 3.985 4.456 6.859 4.456.999 0 2.013-.201 2.985-.624.017-.007.034-.014.05-.021l19.444-8.496c3.796-1.659 5.528-6.08 3.87-9.875-1.658-3.796-6.079-5.53-9.875-3.87z"/><path d="m415.625 334.281-19.484-8.513c-3.795-1.658-8.217.074-9.875 3.87-1.659 3.796.074 8.217 3.87 9.875l19.484 8.513c.978.427 1.996.629 2.999.629 2.891 0 5.645-1.681 6.876-4.499 1.659-3.796-.074-8.217-3.87-9.875z"/><path d="m499.513 237.365-106.738-46.64 106.738-46.64c7.634-3.335 12.376-11.055 12.376-20.146 0-9.09-4.742-16.81-12.376-20.145l-151.742-66.305c-3.794-1.658-8.217.074-9.875 3.87s.074 8.217 3.87 9.875l151.742 66.306c2.496 1.091 3.382 4.129 3.382 6.4s-.886 5.31-3.382 6.4l-225.692 98.618c-7.655 3.345-16.086 3.345-23.741 0l-225.693-98.618c-2.496-1.091-3.382-4.129-3.382-6.4s.886-5.309 3.382-6.4l225.692-98.618c7.655-3.345 16.086-3.345 23.741 0l42.006 18.355c3.795 1.659 8.217-.074 9.875-3.87s-.074-8.217-3.87-9.875l-42.005-18.355c-11.527-5.037-24.226-5.037-35.753 0l-225.692 98.618c-7.634 3.335-12.376 11.055-12.376 20.145 0 9.091 4.742 16.81 12.376 20.146l106.738 46.64-34.01 14.861c-3.796 1.659-5.528 6.08-3.87 9.875 1.658 3.796 6.079 5.529 9.875 3.87l46.736-20.421 100.222 43.793c5.764 2.519 11.82 3.778 17.876 3.778s12.113-1.259 17.876-3.778l100.223-43.793 119.464 52.2c2.496 1.091 3.382 4.129 3.382 6.4s-.886 5.31-3.382 6.4l-225.692 98.617c-7.654 3.346-16.085 3.345-23.741 0l-225.691-98.617c-2.496-1.091-3.382-4.129-3.382-6.4s.886-5.31 3.382-6.4l40.75-17.806c3.796-1.658 5.528-6.08 3.87-9.875-1.659-3.796-6.081-5.529-9.875-3.87l-40.75 17.806c-7.635 3.335-12.377 11.054-12.377 20.145s4.742 16.81 12.376 20.146l106.738 46.64-13.72 5.995c-3.795 1.659-5.528 6.08-3.87 9.875 1.231 2.818 3.986 4.499 6.876 4.499 1.002 0 2.021-.202 2.999-.629l19.483-8.513c1.961-.857 3.365-2.454 4.042-4.318l103.143 45.069c5.765 2.519 11.82 3.778 17.877 3.778 6.056 0 12.113-1.26 17.876-3.778l225.692-98.617c7.634-3.335 12.376-11.055 12.376-20.146s-4.742-16.811-12.375-20.147z"/></g></g></svg>